<?xml version="1.0" standalone="no"?>
<!DOCTYPE svg PUBLIC "-//W3C//DTD SVG 20010904//EN"
 "http://www.w3.org/TR/2001/REC-SVG-20010904/DTD/svg10.dtd">
<svg version="1.0" xmlns="http://www.w3.org/2000/svg"
 width="992.000000pt" height="992.000000pt" viewBox="0 0 992.000000 992.000000"
 preserveAspectRatio="xMidYMid meet">
<metadata>
Created by potrace 1.14, written by Peter Selinger 2001-2017
</metadata>
<g transform="translate(0.000000,992.000000) scale(0.100000,-0.100000)"
fill="#000000" stroke="none">
<path d="M5365 7793 c-26 -7 -66 -33 -88 -58 -42 -46 -50 -84 -62 -305 -3 -52
-7 -106 -10 -120 -5 -23 -14 -99 -19 -160 -2 -14 -5 -34 -9 -45 -3 -11 -8 -40
-11 -65 -3 -25 -8 -54 -10 -65 -2 -11 -7 -38 -11 -60 -4 -22 -9 -51 -11 -65
-2 -14 -6 -38 -9 -55 -3 -16 -5 -33 -6 -37 0 -4 -4 -22 -9 -39 -5 -18 -12 -51
-16 -73 -3 -23 -21 -115 -41 -206 -19 -91 -36 -174 -39 -185 -2 -11 -15 -72
-29 -135 -15 -63 -28 -126 -31 -139 -3 -12 -12 -53 -20 -90 -9 -36 -17 -73
-19 -81 -2 -8 -11 -46 -20 -85 -9 -38 -19 -81 -21 -95 -3 -14 -10 -43 -16 -65
-6 -22 -13 -53 -15 -70 -3 -16 -9 -38 -14 -47 -5 -10 -8 -18 -5 -18 2 0 0 -16
-6 -36 -5 -20 -11 -44 -13 -53 -2 -10 -17 -76 -35 -147 -18 -71 -34 -140 -36
-154 -3 -14 -9 -39 -15 -56 -5 -17 -12 -42 -14 -55 -3 -13 -7 -35 -10 -49 -3
-14 -7 -34 -9 -45 -2 -11 -11 -47 -20 -81 -8 -33 -18 -71 -20 -85 -2 -13 -5
-24 -6 -24 -1 0 -3 -10 -6 -22 -2 -12 -15 -69 -28 -125 -20 -83 -76 -328 -132
-578 -4 -19 -8 -37 -9 -40 -4 -19 -20 -97 -20 -105 -1 -5 -7 -28 -13 -50 -6
-22 -14 -57 -18 -79 -5 -37 -7 -46 -19 -98 -3 -13 -8 -36 -11 -53 -3 -16 -9
-48 -14 -70 -10 -43 -13 -62 -30 -170 -28 -170 -16 -249 62 -430 17 -38 33
-72 37 -75 3 -3 21 -34 40 -70 106 -201 286 -420 394 -478 85 -45 127 -25 202
100 43 73 146 335 170 433 1 6 5 17 8 25 7 16 86 276 92 300 10 45 38 149 46
175 10 30 88 327 94 355 2 8 8 35 15 60 7 25 14 52 16 60 2 8 28 110 59 225
30 116 57 219 59 230 2 11 10 43 16 70 7 28 13 57 15 65 2 8 4 15 5 15 1 0 3
11 4 25 2 14 6 35 10 47 4 13 9 34 12 48 8 48 12 70 28 145 9 41 18 92 22 114
6 42 9 58 18 96 3 14 8 41 11 60 2 19 6 44 9 55 2 11 7 42 10 68 4 27 9 56 10
65 2 10 7 40 10 67 4 28 10 64 12 80 3 17 7 46 9 65 2 19 5 35 6 35 1 0 3 14
10 93 4 37 14 42 22 10 2 -13 43 -176 91 -363 48 -187 88 -349 91 -360 2 -11
16 -63 30 -115 15 -52 30 -111 35 -130 28 -111 101 -334 139 -429 103 -247
301 -377 581 -379 91 -1 117 3 191 28 191 64 336 182 580 474 13 16 29 34 34
40 6 6 28 34 50 61 22 28 42 52 45 55 3 3 21 25 40 50 19 25 42 54 52 65 21
24 158 202 289 376 51 68 97 129 101 134 5 6 59 78 121 160 61 83 120 159 129
169 10 11 18 24 18 30 0 5 3 7 6 4 4 -5 -50 -179 -83 -268 -3 -8 -7 -20 -8
-26 -2 -6 -23 -76 -48 -155 -25 -79 -48 -157 -53 -174 -10 -42 -11 -45 -14
-47 -1 -2 -3 -10 -5 -18 -2 -8 -20 -73 -39 -145 -43 -157 -107 -435 -121 -525
-2 -14 -9 -50 -15 -80 -6 -30 -14 -73 -16 -95 -3 -22 -7 -51 -10 -65 -5 -28
-10 -67 -19 -150 -3 -30 -9 -89 -13 -130 -9 -75 -8 -414 1 -460 2 -14 8 -45
11 -70 7 -47 9 -53 52 -190 67 -213 190 -404 294 -457 42 -21 107 -25 169 -9
42 10 112 78 150 146 41 72 100 209 107 248 3 14 9 33 15 44 5 10 7 18 3 18
-3 0 -1 7 6 15 7 8 10 15 7 15 -3 0 -1 15 4 33 10 33 68 256 74 286 2 9 13 57
25 106 12 50 23 97 25 105 2 8 35 143 73 300 81 331 106 433 105 440 0 3 4 16
9 30 5 14 12 36 14 50 3 14 12 52 21 85 8 33 17 69 19 80 2 11 29 114 60 230
31 115 58 217 60 225 1 8 17 65 34 125 17 61 33 121 36 135 3 14 14 56 25 95
23 80 67 236 79 280 5 17 23 80 40 140 17 61 33 117 34 125 2 8 9 35 16 60 7
25 14 56 17 69 2 14 7 29 11 35 3 6 7 20 9 31 1 11 7 38 13 60 15 57 16 59 45
175 37 149 53 219 60 265 2 11 4 20 5 20 2 0 6 20 14 65 4 19 16 81 26 138 11
57 22 124 25 150 3 26 8 61 11 77 29 189 21 387 -18 458 -7 12 -13 27 -14 32
-7 41 -173 237 -255 300 -53 42 -147 89 -198 100 -34 7 -105 9 -132 3 -18 -4
-142 -68 -149 -76 -3 -4 -23 -20 -45 -36 -45 -33 -64 -50 -155 -139 -76 -75
-157 -161 -220 -236 -25 -29 -51 -60 -59 -68 -13 -13 -44 -50 -120 -142 -20
-24 -41 -49 -46 -55 -6 -6 -28 -33 -50 -61 -22 -27 -42 -52 -45 -55 -3 -3 -23
-27 -45 -55 -22 -27 -45 -57 -52 -65 -7 -8 -53 -67 -103 -130 -50 -63 -99
-126 -110 -138 -11 -13 -20 -27 -20 -32 0 -5 -4 -10 -8 -12 -8 -3 -108 -132
-285 -368 -39 -52 -74 -97 -77 -100 -3 -3 -47 -61 -99 -130 -113 -149 -372
-481 -415 -531 -17 -19 -49 -57 -71 -83 -25 -31 -41 -44 -43 -35 -3 8 -17 40
-33 72 -15 31 -25 57 -22 57 3 0 1 6 -5 13 -28 33 -260 660 -286 772 -3 12
-44 149 -57 190 -34 106 -118 445 -133 538 -3 15 -7 35 -10 45 -3 9 -7 33 -10
52 -2 19 -8 57 -11 83 -4 26 -8 79 -9 117 -1 38 -5 73 -9 77 -4 3 -7 13 -7 20
0 46 -183 244 -290 314 -14 10 -35 26 -47 38 -12 12 -25 21 -28 21 -3 0 -34
22 -68 48 -109 84 -297 205 -394 252 -80 40 -103 47 -156 48 -34 0 -71 -2 -82
-5z"/>
<path d="M2048 7665 c-2 -2 -75 -6 -162 -10 -88 -3 -180 -8 -205 -10 -25 -2
-84 -7 -131 -10 -47 -4 -98 -9 -115 -11 -16 -2 -50 -7 -75 -10 -82 -10 -234
-51 -288 -77 -107 -52 -170 -115 -207 -207 -21 -54 -25 -84 -24 -170 2 -141 2
-168 -5 -245 -4 -44 -9 -105 -12 -135 -3 -30 -7 -66 -9 -80 -2 -14 -7 -47 -11
-75 -3 -27 -8 -57 -9 -66 -2 -9 -6 -40 -10 -70 -4 -30 -16 -99 -27 -154 -10
-55 -21 -114 -23 -131 -3 -16 -16 -84 -30 -150 -14 -65 -28 -130 -31 -143 -3
-12 -12 -53 -20 -90 -9 -36 -18 -75 -20 -86 -2 -11 -6 -30 -9 -42 -3 -13 -7
-32 -10 -44 -2 -11 -7 -29 -10 -39 -3 -10 -7 -27 -9 -37 -2 -10 -12 -47 -21
-83 -9 -36 -18 -72 -20 -80 -2 -8 -20 -78 -40 -155 -20 -77 -38 -147 -40 -155
-2 -8 -4 -15 -5 -15 -1 0 -3 -7 -5 -15 -5 -27 -43 -165 -49 -180 -3 -8 -7 -26
-10 -40 -3 -14 -21 -83 -41 -155 -20 -71 -37 -137 -38 -145 -2 -8 -6 -21 -10
-27 -5 -7 -6 -13 -3 -13 2 0 0 -15 -5 -32 -13 -44 -72 -273 -84 -328 -2 -8
-15 -60 -29 -115 -13 -55 -27 -111 -30 -125 -2 -14 -11 -54 -20 -90 -8 -36
-18 -81 -21 -100 -3 -19 -10 -51 -15 -70 -5 -19 -12 -48 -14 -65 -3 -16 -8
-41 -11 -55 -3 -14 -7 -39 -9 -56 -2 -16 -6 -39 -9 -50 -3 -10 -9 -41 -12 -69
-4 -27 -9 -63 -11 -80 -10 -70 -11 -236 -2 -281 5 -27 11 -58 12 -69 8 -51 62
-175 109 -249 62 -100 181 -216 301 -295 73 -47 226 -113 291 -125 17 -3 46
-9 65 -12 48 -10 329 -12 363 -3 16 5 27 4 27 -2 0 -6 5 -7 10 -4 6 3 38 8 73
11 67 5 131 11 187 18 19 2 58 7 85 10 28 3 102 15 165 26 63 12 122 21 130
22 8 0 33 5 55 10 22 6 51 12 65 13 14 2 72 16 130 30 58 15 110 28 115 29 48
12 72 19 85 23 8 3 23 8 32 9 63 13 385 130 500 183 26 11 51 21 57 21 5 0 11
3 13 8 2 4 30 20 63 37 63 31 129 68 173 97 15 10 34 21 42 25 8 4 21 12 30
19 8 7 42 33 75 58 61 45 152 132 192 183 59 74 101 192 98 278 -3 94 -14 130
-50 165 -27 27 -41 32 -81 33 -27 0 -60 -2 -74 -6 -14 -3 -54 -13 -90 -22 -36
-8 -72 -17 -80 -19 -249 -61 -351 -86 -375 -90 -38 -8 -69 -14 -97 -21 -13 -3
-34 -8 -48 -10 -14 -2 -50 -9 -80 -15 -30 -6 -70 -13 -89 -16 -18 -3 -43 -7
-54 -10 -12 -2 -39 -6 -62 -9 -22 -3 -52 -8 -67 -11 -27 -5 -59 -10 -138 -19
-25 -3 -55 -7 -67 -9 -12 -3 -54 -7 -95 -11 -40 -3 -84 -8 -98 -10 -14 -2 -65
-7 -115 -10 -49 -4 -115 -9 -145 -11 -30 -2 -142 -6 -249 -8 -211 -6 -234 -1
-268 50 -24 38 -20 143 12 294 3 14 7 34 9 45 11 52 30 130 52 210 9 33 17 67
19 75 6 27 75 264 85 290 6 14 12 34 14 45 3 11 14 52 26 90 13 39 23 75 24
80 1 6 5 16 9 22 5 7 10 21 12 30 12 64 22 73 77 74 29 1 71 3 93 4 137 11
243 22 305 30 19 2 58 7 85 11 28 3 59 8 70 10 34 7 68 12 119 19 27 3 53 8
57 10 4 3 22 7 40 10 19 2 45 7 59 10 14 2 34 7 45 9 114 24 375 96 500 138
326 110 531 275 561 453 16 91 1 136 -63 189 -56 47 -101 56 -241 51 -70 -3
-147 -7 -172 -9 -25 -3 -76 -8 -115 -11 -38 -3 -92 -8 -120 -11 -120 -12 -265
-23 -375 -29 -309 -17 -639 -25 -645 -15 -2 3 10 57 26 120 16 63 31 124 33
136 6 29 45 224 51 254 3 14 8 41 11 60 3 19 8 49 10 65 7 36 14 92 29 225 7
58 17 231 17 292 0 47 4 53 53 64 6 1 84 20 175 42 91 22 179 43 195 46 17 3
41 7 55 10 14 3 36 7 50 10 14 2 36 7 50 10 14 3 39 8 55 11 17 3 68 11 115
19 93 16 147 25 199 32 19 2 48 7 65 9 91 16 164 25 226 30 30 3 66 7 80 10
13 2 52 7 85 10 63 6 116 12 152 19 12 3 49 7 82 11 33 3 70 8 83 11 13 2 37
6 53 9 42 6 104 16 129 21 11 2 36 7 55 10 35 6 54 9 111 21 44 9 37 7 90 22
81 22 203 81 245 119 106 96 123 216 44 306 -36 40 -153 110 -202 120 -7 2
-19 5 -27 8 -50 17 -89 28 -120 33 -19 3 -43 8 -53 11 -10 3 -31 7 -48 9 -17
3 -38 6 -48 9 -9 3 -41 8 -71 11 -30 3 -66 8 -80 10 -38 6 -117 14 -205 21
-44 3 -102 8 -130 10 -58 6 -1292 14 -1297 9z"/>
</g>
</svg>
