<svg width="62" height="36" viewBox="0 0 62 36" fill="none" xmlns="http://www.w3.org/2000/svg">
<path d="M10.904 15.216C12.6 15.216 14.424 15.136 16.376 14.976C18.328 14.784 19.528 14.688 19.976 14.688C20.456 14.688 20.824 14.8 21.08 15.024C21.368 15.248 21.512 15.52 21.512 15.84C21.512 17.248 20.184 18.368 17.528 19.2C14.872 20.032 12.04 20.512 9.032 20.64C7.784 24.512 7.16 26.96 7.16 27.984C7.16 28.528 7.432 28.8 7.976 28.8C11.624 28.8 15.384 28.32 19.256 27.36C20.568 27.008 21.32 26.832 21.512 26.832C22.12 26.832 22.424 27.264 22.424 28.128C22.424 29.28 21.576 30.4 19.88 31.488C18.184 32.576 16.056 33.44 13.496 34.08C10.936 34.72 8.424 35.04 5.96 35.04C4.488 35.04 3.16 34.496 1.976 33.408C0.792 32.288 0.2 30.992 0.2 29.52C0.2 28.016 1.016 24.272 2.648 18.288C4.312 12.304 5.192 7.792 5.288 4.752C5.256 4.656 5.24 4.464 5.24 4.176C5.24 3.728 5.304 3.376 5.432 3.12C5.784 2.224 6.76 1.664 8.36 1.44C9.96 1.184 12.84 1.056 17 1.056C23.912 1.056 27.368 1.824 27.368 3.36C27.368 4.352 26.52 5.04 24.824 5.424C23.672 5.68 22.088 5.92 20.072 6.144C16.968 6.496 14.2 7.008 11.768 7.68C11.768 9.856 11.384 12.368 10.616 15.216H10.904ZM34.0295 0.239997C34.6375 0.239997 35.8215 0.895997 37.5815 2.208C39.3735 3.488 40.2695 4.448 40.2695 5.088C40.2695 6.208 40.6375 8.048 41.3735 10.608C42.1095 13.168 42.9575 15.488 43.9175 17.568C44.8775 16.448 46.4935 14.384 48.7655 11.376C51.0695 8.336 53.0055 5.936 54.5735 4.176C56.1415 2.416 57.3095 1.536 58.0775 1.536C58.8455 1.536 59.6455 1.968 60.4775 2.832C61.3095 3.696 61.7255 4.56 61.7255 5.424C61.7255 6.288 61.5975 7.408 61.3415 8.784C61.0855 10.128 60.7975 11.392 60.4775 12.576C60.1895 13.728 59.7575 15.312 59.1815 17.328C58.6375 19.344 58.2055 20.944 57.8855 22.128C57.5975 23.28 57.2935 24.528 56.9735 25.872C56.6535 27.184 56.3975 28.224 56.2055 28.992C56.0455 29.728 55.8535 30.512 55.6295 31.344C55.4375 32.144 55.2615 32.768 55.1015 33.216C54.9415 33.632 54.7655 34.016 54.5735 34.368C54.2215 35.04 53.7255 35.376 53.0855 35.376C52.4455 35.376 51.8055 34.752 51.1655 33.504C50.5575 32.224 50.2535 30.896 50.2535 29.52C50.2535 26.128 51.2295 21.632 53.1815 16.032C52.6375 16.736 51.8535 17.776 50.8295 19.152C49.8055 20.496 49.0375 21.488 48.5255 22.128C48.0455 22.736 47.4375 23.456 46.7015 24.288C45.3895 25.728 44.1095 26.448 42.8615 26.448C41.1975 26.448 40.0135 25.792 39.3095 24.48C38.9575 23.808 38.4775 22.304 37.8695 19.968C37.2935 17.6 36.8775 15.968 36.6215 15.072C36.2055 18.368 35.6455 21.36 34.9415 24.048C34.2375 26.736 33.7735 28.496 33.5495 29.328C33.3255 30.16 33.0215 31.168 32.6375 32.352C31.9975 34.368 31.4215 35.376 30.9095 35.376C30.3335 35.376 29.5335 34.624 28.5095 33.12C27.5175 31.584 27.0215 30.384 27.0215 29.52C27.0215 28.656 27.9495 24.336 29.8055 16.56C31.6935 8.784 32.6375 3.872 32.6375 1.824C32.6375 0.767998 33.1015 0.239997 34.0295 0.239997Z" fill="url(#paint0_linear_1_2)"/>
<defs>
<linearGradient id="paint0_linear_1_2" x1="21.2353" y1="5.26316" x2="38.4198" y2="44.4385" gradientUnits="userSpaceOnUse">
<stop stop-color="#A21F44"/>
<stop offset="0.521662" stop-color="#582244"/>
<stop offset="1" stop-color="#0D2545"/>
</linearGradient>
</defs>
</svg>
